<svg xmlns="http://www.w3.org/2000/svg" width="854.272" height="923.906" viewBox="0 0 854.272 923.906">
  <g id="noun_shutdown_1645758" transform="translate(-84.803 -49.962)">
    <g id="Group_4" data-name="Group 4">
      <g id="Group_3" data-name="Group 3">
        <path id="Path_13" data-name="Path 13" d="M562,522V152.1c0-17.1.2-34.2,0-51.4V100a52.054,52.054,0,0,0-14.6-35.4C538.7,56,524.5,49.4,512,50c-12.9.6-26.3,4.8-35.4,14.6-9,9.8-14.6,21.8-14.6,35.4V469.9c0,17.1-.2,34.2,0,51.4v.7a52.054,52.054,0,0,0,14.6,35.4c8.7,8.7,22.9,15.2,35.4,14.6,12.9-.6,26.3-4.8,35.4-14.6,8.9-9.8,14.6-21.9,14.6-35.4Z" fill="#fb4d01"/>
      </g>
    </g>
    <g id="Group_6" data-name="Group 6">
      <g id="Group_5" data-name="Group 5">
        <path id="Path_14" data-name="Path 14" d="M699.1,278.2q8.85,6,17.4,12.6c-3.4-2.6-6.7-5.2-10.1-7.8a391.842,391.842,0,0,1,68.8,68.6c-2.6-3.4-5.2-6.7-7.8-10.1a377.091,377.091,0,0,1,49.2,84.4c-1.7-4-3.4-8-5-11.9a384.248,384.248,0,0,1,26.1,96.1c-.6-4.4-1.2-8.9-1.8-13.3a381.953,381.953,0,0,1,0,100.2c.6-4.4,1.2-8.9,1.8-13.3A381.343,381.343,0,0,1,811.2,681c1.7-4,3.4-8,5-11.9a384.7,384.7,0,0,1-48.6,83.1c2.6-3.4,5.2-6.7,7.8-10.1a386.18,386.18,0,0,1-68.2,68.2c3.4-2.6,6.7-5.2,10.1-7.8a380.372,380.372,0,0,1-83.1,48.7c4-1.7,8-3.4,11.9-5a382.66,382.66,0,0,1-97.3,26.6c4.4-.6,8.9-1.2,13.3-1.8a381.953,381.953,0,0,1-100.2,0c4.4.6,8.9,1.2,13.3,1.8a377.5,377.5,0,0,1-97.3-26.6c4,1.7,8,3.4,11.9,5a381.056,381.056,0,0,1-83.1-48.7c3.4,2.6,6.7,5.2,10.1,7.8a386.181,386.181,0,0,1-68.2-68.2c2.6,3.4,5.2,6.7,7.8,10.1a376.034,376.034,0,0,1-48.6-83.1c1.7,4,3.4,8,5,11.9a382.458,382.458,0,0,1-26.5-97.3c.6,4.4,1.2,8.9,1.8,13.3a386.307,386.307,0,0,1,0-100.2c-.6,4.4-1.2,8.9-1.8,13.3A382.313,382.313,0,0,1,212.4,414c-1.7,4-3.4,8-5,11.9a383.224,383.224,0,0,1,49.2-84.4c-2.6,3.4-5.2,6.7-7.8,10.1a388.44,388.44,0,0,1,68.4-68.4c-3.4,2.6-6.7,5.2-10.1,7.8,6.6-5,13.3-9.9,20.1-14.5q-37.65-21.6-75.2-43.2v1.6a52.054,52.054,0,0,0,14.6,35.4c8.7,8.7,22.9,15.2,35.4,14.6,12.9-.6,26.3-4.8,35.4-14.6,9-9.8,14.6-21.8,14.6-35.4v-1.6a50.509,50.509,0,0,0-24.8-43.2c-14.7-8.6-35.9-9.8-50.5,0C213.8,232.7,160.6,291,127.9,360,98.2,422.7,82.4,491.6,85.1,561.2c2.6,69.5,21.7,138.1,56.4,198.5,35.7,62.2,87.8,115.1,149,152.4,59.8,36.5,128.4,56.8,198.2,61.1,34.5,2.1,69.1-.9,103.1-6.9,34.3-6.1,66.9-17.5,98.7-31.6,32.6-14.5,61.8-33.8,89.7-55.8,28.8-22.6,52.9-49.3,75-78.2a377.673,377.673,0,0,0,47.3-81.3c13.7-32,24.5-64.6,30.1-99.1,5.5-34.2,8.1-68.6,5.4-103.2-2.7-34.5-8.7-68.9-19.5-101.8C896,347,856.8,284.2,804,235.1a453.416,453.416,0,0,0-54.5-43.2c-10.3-7-26.9-8.2-38.5-5s-24.2,12.2-29.9,23c-6.1,11.6-9.2,25.7-5,38.5s11.8,22.1,23,29.8Z" fill="#fb4d01"/>
      </g>
    </g>
  </g>
</svg>
