<svg xmlns="http://www.w3.org/2000/svg" width="111.008" height="111.008" viewBox="0 0 111.008 111.008">
  <g id="noun_paper_plane_3303509" data-name="noun_paper plane_3303509" transform="translate(5.912 4.161)">
    <path id="Path_15" data-name="Path 15" d="M84.356,12.22,11.846,31.649a2.023,2.023,0,0,0-.907,3.385L27.831,51.926a9.624,9.624,0,0,0,12.5.951l28.877-22.8a1.181,1.181,0,0,1,1.651,1.651L48.058,60.6a9.624,9.624,0,0,0,.951,12.5L65.9,90a2.023,2.023,0,0,0,3.385-.907l19.429-72.51A3.559,3.559,0,0,0,84.356,12.22Z" transform="translate(50.83 -20.029) rotate(45)" fill="#fb4d01"/>
  </g>
</svg>
