<svg xmlns="http://www.w3.org/2000/svg" width="148.956" height="150.287" viewBox="0 0 148.956 150.287">
  <g id="profiles" transform="translate(3713.996 -1315.485)">
    <g id="Group_2" data-name="Group 2" transform="translate(-3682.375 1315.485)">
      <path id="Path_12" data-name="Path 12" d="M57.59,89.578a42.855,42.855,0,1,1,42.857-42.857A42.905,42.905,0,0,1,57.59,89.578Zm0-74.064A31.209,31.209,0,1,0,88.8,46.721,31.247,31.247,0,0,0,57.59,15.513Z" transform="translate(-14.733 -3.867)" fill="#fb4d01"/>
    </g>
    <path id="Path_11" data-name="Path 11" d="M11.149,90.669a5.692,5.692,0,0,1-1.97-.35,5.82,5.82,0,0,1-3.509-7.448,78.784,78.784,0,0,1,148.267,0,5.825,5.825,0,0,1-10.964,3.939,67.134,67.134,0,0,0-126.343,0A5.834,5.834,0,0,1,11.149,90.669Z" transform="translate(-3719.321 1375.102)" fill="#fb4d01"/>
  </g>
</svg>
